<svg width="16" height="11" viewBox="0 0 16 11" fill="none" xmlns="http://www.w3.org/2000/svg">
<g clip-path="url(#clip0_12_1164)">
<path d="M4.11602 1.31202V1.33602C4.11602 1.34402 4.11602 1.34802 4.11602 1.34802C4.12402 1.34802 4.12802 1.35202 4.12802 1.36002V1.38402H4.14002L4.21202 1.57602C4.29202 1.80802 4.08402 2.52802 3.58802 3.73602C3.06002 5.02402 2.81602 6.02802 2.85602 6.74802C2.94402 7.26002 3.37202 6.84802 4.14002 5.51202C4.74802 4.47202 5.33602 3.33202 5.90402 2.09202C5.97602 1.92402 6.05202 1.75202 6.13202 1.57602C6.21202 1.39202 6.31202 1.24002 6.43202 1.12002C6.69602 0.832021 7.01602 0.756021 7.39202 0.89202C7.52002 0.74002 7.66802 0.63602 7.83602 0.580021C8.01202 0.52402 8.17602 0.51202 8.32802 0.54402C8.48802 0.57602 8.62402 0.65202 8.73602 0.77202C8.84802 0.88402 8.90802 1.03602 8.91602 1.22802C8.94002 1.38802 8.85602 1.76802 8.66402 2.36802C8.48002 2.96802 8.30802 3.51602 8.14802 4.01202C7.98802 4.50802 7.82402 5.04802 7.65602 5.63202C7.24802 7.01602 6.92402 8.32002 6.68402 9.54402C6.67602 9.80002 6.56402 10.012 6.34802 10.18C6.14002 10.348 5.90402 10.456 5.64002 10.504C5.38402 10.56 5.14002 10.552 4.90802 10.48C4.62802 10.4 4.48002 10.2 4.46402 9.88002C4.46402 9.79202 4.46002 9.70402 4.45202 9.61602C4.46802 9.88802 4.27202 10.12 3.86402 10.312C3.75202 10.368 3.64802 10.42 3.55202 10.468C2.99202 10.636 2.40402 10.6 1.78802 10.36C1.50002 10.24 1.24002 10.08 1.00802 9.88002C0.784023 9.67202 0.628023 9.42802 0.540023 9.14802C0.260023 8.25202 0.312023 7.07602 0.696023 5.62002C0.856023 4.99602 1.05202 4.38802 1.28402 3.79602C1.51602 3.20402 1.68402 2.77602 1.78802 2.51202C1.90002 2.24802 1.98002 2.06802 2.02802 1.97202C2.07602 1.86802 2.12802 1.76802 2.18402 1.67202C2.32002 1.40002 2.43602 1.21602 2.53202 1.12002L2.67602 0.98802C2.69202 0.972021 2.70802 0.96402 2.72402 0.96402C2.74002 0.95602 2.76002 0.944021 2.78402 0.92802C2.84802 0.888021 2.91602 0.860021 2.98802 0.844021L3.15602 0.808021H3.22802C3.46002 0.776021 3.66002 0.824021 3.82802 0.952021C3.82802 0.960021 3.83602 0.96402 3.85202 0.96402L3.94802 1.04802L3.98402 1.08402L4.02002 1.13202C4.02002 1.14002 4.02002 1.14402 4.02002 1.14402C4.02802 1.14402 4.03202 1.14802 4.03202 1.15602L4.04402 1.16802V1.19202C4.05202 1.19202 4.05602 1.19602 4.05602 1.20402V1.21602C4.06402 1.22402 4.07202 1.22802 4.08002 1.22802V1.24002C4.08002 1.24802 4.08002 1.25202 4.08002 1.25202C4.08802 1.25202 4.09202 1.25602 4.09202 1.26402C4.09202 1.26402 4.09602 1.26802 4.10402 1.27602V1.28802C4.10402 1.29602 4.10802 1.30402 4.11602 1.31202ZM4.44002 9.30402V9.26802C4.43202 9.27602 4.42802 9.30802 4.42802 9.36402C4.42802 9.34002 4.43202 9.32402 4.44002 9.31602V9.30402ZM10.3748 1.48002C10.5268 1.11202 10.7428 0.98002 11.0228 1.08402C11.1028 0.90802 11.1708 0.796021 11.2268 0.748021C11.2908 0.700021 11.3548 0.664021 11.4188 0.640021C11.4828 0.608021 11.5508 0.57602 11.6228 0.54402C11.6948 0.51202 11.8068 0.48402 11.9588 0.460021C12.1108 0.436021 12.2788 0.424021 12.4628 0.424021C12.6468 0.416021 12.8308 0.424021 13.0148 0.44802C13.2068 0.47202 13.3668 0.52402 13.4948 0.60402C13.8068 0.78802 13.8748 1.08402 13.6988 1.49202C13.7148 1.48402 13.7108 1.49202 13.6868 1.51602L13.5788 1.72002L13.4948 1.82802C13.4548 1.86802 13.3308 2.11202 13.1228 2.56002C12.9548 2.88002 12.7828 3.19602 12.6068 3.50802C12.3188 4.04402 12.1428 4.38802 12.0788 4.54002C12.3588 4.38802 12.6828 4.16802 13.0508 3.88002C13.7468 3.34402 14.1908 3.02402 14.3828 2.92002C14.5748 2.81602 14.7068 2.75202 14.7788 2.72802C14.8588 2.70402 14.9348 2.70002 15.0068 2.71602C15.0788 2.72402 15.1548 2.74402 15.2348 2.77602L15.5348 2.89602C15.7268 2.96002 15.8308 3.19202 15.8468 3.59202C15.8548 3.98402 15.7748 4.28002 15.6068 4.48002C14.8788 5.42402 14.0588 6.05602 13.1468 6.37602C12.8668 6.48002 12.5788 6.56802 12.2828 6.64002C12.7068 6.68802 13.1108 6.96802 13.4948 7.48002C13.8068 7.89602 14.0308 8.32402 14.1668 8.76402C14.3108 9.20402 14.4228 9.53202 14.5028 9.74802C14.5828 9.95602 14.6148 10.116 14.5988 10.228C14.5908 10.348 14.5228 10.436 14.3948 10.492C14.2748 10.556 14.0668 10.616 13.7708 10.672C13.6348 10.696 13.3548 10.536 12.9308 10.192C12.7468 10.04 12.5508 9.87602 12.3428 9.70002C12.1348 9.51602 11.9268 9.34402 11.7188 9.18402C11.2388 8.80802 10.9028 8.61202 10.7108 8.59602C10.6948 8.59602 10.6628 8.58802 10.6148 8.57202L10.3988 9.11202C10.2868 9.37602 10.1708 9.65602 10.0508 9.95202C9.93886 10.24 9.80286 10.5 9.64286 10.732C9.39486 10.9 9.10686 10.968 8.77886 10.936C8.40286 10.896 8.15486 10.744 8.03486 10.48C7.95486 10.232 8.08686 9.50402 8.43086 8.29602C8.66286 7.44802 8.86286 6.70402 9.03086 6.06402C9.19886 5.42402 9.34286 4.89602 9.46286 4.48002C9.58286 4.05602 9.67086 3.72802 9.72686 3.49602C9.78286 3.25602 9.83886 3.02402 9.89486 2.80002C10.0308 2.28002 10.1908 1.84002 10.3748 1.48002Z" fill="black"/>
</g>
<defs>
<clipPath id="clip0_12_1164">
<rect width="16" height="11" fill="white"/>
</clipPath>
</defs>
</svg>
