<svg width="62" height="11" viewBox="0 0 62 11" fill="none" xmlns="http://www.w3.org/2000/svg">
<path d="M0.948 9.604L0.864 1.852C0.864 1.66 0.94 1.496 1.092 1.36C1.252 1.216 1.432 1.116 1.632 1.06C1.832 1.004 2.02 0.996 2.196 1.036C2.372 1.076 2.484 1.18 2.532 1.348C2.684 1.652 2.788 2.072 2.844 2.608C2.948 3.608 3 4.472 3 5.2C3.08 5.328 3.18 5.388 3.3 5.38C3.644 4.54 4.024 3.732 4.44 2.956C4.856 2.18 5.124 1.684 5.244 1.468C5.364 1.244 5.508 1.088 5.676 0.999999C5.844 0.911999 6.024 0.855999 6.216 0.831999C6.632 0.783999 7.024 0.855999 7.392 1.048C7.672 1.144 7.836 1.308 7.884 1.54C8.068 1.908 7.944 2.332 7.512 2.812C7.008 3.612 6.5 4.496 5.988 5.464C5.012 7.328 4.392 8.476 4.128 8.908C3.864 9.34 3.672 9.648 3.552 9.832C3.432 10.008 3.296 10.156 3.144 10.276C2.872 10.492 2.544 10.58 2.16 10.54C1.488 10.516 1.096 10.304 0.984 9.904C0.96 9.792 0.948 9.692 0.948 9.604ZM7.73578 4.732C7.95978 4.516 8.20778 4.392 8.47978 4.36C8.75978 4.32 9.00378 4.348 9.21178 4.444C9.42778 4.54 9.58378 4.696 9.67978 4.912C9.78378 5.12 9.77178 5.36 9.64378 5.632C9.37178 6.032 9.15578 6.464 8.99578 6.928C8.83578 7.392 8.68778 7.86 8.55178 8.332C9.28778 7.868 9.90378 7.176 10.3998 6.256C10.5438 5.984 10.6998 5.708 10.8678 5.428L11.0478 5.092L11.4078 4.516C11.4558 4.364 11.5398 4.268 11.6598 4.228C11.7798 4.18 11.9078 4.156 12.0438 4.156C12.1878 4.156 12.3318 4.16 12.4758 4.168C12.6198 4.168 12.7518 4.128 12.8718 4.048C12.9918 3.968 13.1318 3.94 13.2918 3.964C13.4598 3.98 13.6078 4.032 13.7358 4.12C13.8718 4.208 13.9718 4.316 14.0358 4.444C14.1078 4.564 14.1158 4.684 14.0598 4.804C13.7238 5.524 13.2638 6.864 12.6798 8.824C12.5438 9.264 12.4158 9.632 12.2958 9.928C12.0958 10.176 11.8438 10.344 11.5398 10.432C11.2358 10.52 10.9478 10.544 10.6758 10.504C10.4118 10.472 10.1998 10.38 10.0398 10.228C9.87978 10.084 9.84378 9.9 9.93178 9.676C9.70778 9.86 9.47578 10.028 9.23578 10.18C8.99578 10.332 8.70378 10.432 8.35978 10.48C8.02378 10.528 7.69978 10.512 7.38778 10.432C7.07578 10.36 6.80778 10.216 6.58378 10C6.36778 9.784 6.25178 9.496 6.23578 9.136C6.18778 7.872 6.68778 6.404 7.73578 4.732ZM17.6411 8.224C17.4891 8.296 17.3411 8.352 17.1971 8.392C17.0531 8.432 16.8851 8.472 16.6931 8.512C16.1891 8.616 15.8251 8.676 15.6011 8.692C15.6251 8.772 15.7451 8.868 15.9611 8.98C16.1051 9.004 16.2611 8.984 16.4291 8.92C16.6051 8.848 16.7851 8.784 16.9691 8.728C17.1611 8.664 17.3451 8.628 17.5211 8.62C17.7051 8.612 17.8771 8.68 18.0371 8.824C18.1011 8.968 18.1531 9.052 18.1931 9.076C18.2331 9.1 18.2691 9.112 18.3011 9.112C18.3331 9.112 18.3691 9.124 18.4091 9.148C18.4491 9.172 18.5051 9.264 18.5771 9.424C18.6571 9.584 18.6371 9.736 18.5171 9.88C18.4051 10.024 18.2291 10.148 17.9891 10.252C17.7491 10.356 17.4691 10.44 17.1491 10.504C16.8291 10.568 16.5091 10.612 16.1891 10.636C15.4691 10.692 14.9211 10.636 14.5451 10.468C14.0011 10.284 13.6491 9.92 13.4891 9.376C13.2811 8.656 13.3971 7.816 13.8371 6.856C14.0371 6.408 14.3531 5.928 14.7851 5.416C15.1611 4.968 15.5811 4.644 16.0451 4.444C16.5811 4.212 17.1411 4.104 17.7251 4.12C18.3491 4.136 18.7811 4.408 19.0211 4.936C19.1411 5.216 19.1651 5.608 19.0931 6.112C18.9651 6.768 18.7971 7.232 18.5891 7.504C18.3811 7.768 18.0651 8.008 17.6411 8.224ZM16.9451 6.328C16.5211 6.24 16.1891 6.48 15.9491 7.048C15.8771 7.2 15.8211 7.36 15.7811 7.528C16.0531 7.56 16.3411 7.408 16.6451 7.072C16.7571 6.936 16.8411 6.8 16.8971 6.664C16.9531 6.52 16.9691 6.408 16.9451 6.328ZM21.4022 1.48C21.5542 1.112 21.7702 0.98 22.0502 1.084C22.1302 0.908 22.1982 0.796 22.2542 0.748C22.3182 0.7 22.3822 0.664 22.4462 0.64C22.5102 0.608 22.5782 0.575999 22.6502 0.543999C22.7222 0.511999 22.8342 0.483999 22.9862 0.46C23.1382 0.436 23.3062 0.424 23.4902 0.424C23.6742 0.416 23.8582 0.424 24.0422 0.447999C24.2342 0.471999 24.3942 0.523999 24.5222 0.603999C24.8342 0.787999 24.9022 1.084 24.7262 1.492C24.7422 1.484 24.7382 1.492 24.7142 1.516L24.6062 1.72L24.5222 1.828C24.4822 1.868 24.3582 2.112 24.1502 2.56C23.9822 2.88 23.8102 3.196 23.6342 3.508C23.3462 4.044 23.1702 4.388 23.1062 4.54C23.3862 4.388 23.7102 4.168 24.0782 3.88C24.7742 3.344 25.2182 3.024 25.4102 2.92C25.6022 2.816 25.7342 2.752 25.8062 2.728C25.8862 2.704 25.9622 2.7 26.0342 2.716C26.1062 2.724 26.1822 2.744 26.2622 2.776L26.5622 2.896C26.7542 2.96 26.8582 3.192 26.8742 3.592C26.8822 3.984 26.8022 4.28 26.6342 4.48C25.9062 5.424 25.0862 6.056 24.1742 6.376C23.8942 6.48 23.6062 6.568 23.3102 6.64C23.7342 6.688 24.1382 6.968 24.5222 7.48C24.8342 7.896 25.0582 8.324 25.1942 8.764C25.3382 9.204 25.4502 9.532 25.5302 9.748C25.6102 9.956 25.6422 10.116 25.6262 10.228C25.6182 10.348 25.5502 10.436 25.4222 10.492C25.3022 10.556 25.0942 10.616 24.7982 10.672C24.6622 10.696 24.3822 10.536 23.9582 10.192C23.7742 10.04 23.5782 9.876 23.3702 9.7C23.1622 9.516 22.9542 9.344 22.7462 9.184C22.2662 8.808 21.9302 8.612 21.7382 8.596C21.7222 8.596 21.6902 8.588 21.6422 8.572L21.4262 9.112C21.3142 9.376 21.1982 9.656 21.0782 9.952C20.9662 10.24 20.8302 10.5 20.6702 10.732C20.4222 10.9 20.1342 10.968 19.8062 10.936C19.4302 10.896 19.1822 10.744 19.0622 10.48C18.9822 10.232 19.1142 9.504 19.4582 8.296C19.6902 7.448 19.8902 6.704 20.0582 6.064C20.2262 5.424 20.3702 4.896 20.4902 4.48C20.6102 4.056 20.6982 3.728 20.7542 3.496C20.8102 3.256 20.8662 3.024 20.9222 2.8C21.0582 2.28 21.2182 1.84 21.4022 1.48ZM31.6874 4.852L31.7354 4.864C31.7514 4.864 31.7594 4.868 31.7594 4.876C31.9674 4.796 32.1394 4.856 32.2754 5.056C32.3634 5.192 32.4314 5.4 32.4794 5.68C32.4954 6.064 32.4554 6.596 32.3594 7.276C32.1754 8.652 32.0754 9.472 32.0594 9.736C32.0754 10.016 31.9034 10.208 31.5434 10.312C31.2314 10.408 30.9194 10.404 30.6074 10.3C30.2794 10.188 30.1434 10.016 30.1994 9.784C30.1354 9.904 30.0714 9.988 30.0074 10.036C29.9434 10.092 29.8154 10.164 29.6234 10.252C29.4394 10.348 29.1754 10.424 28.8314 10.48C28.4874 10.544 28.1434 10.56 27.7994 10.528C27.4554 10.504 27.1394 10.42 26.8514 10.276C26.5714 10.14 26.3834 9.924 26.2874 9.628C26.1034 9.052 26.1274 8.32 26.3594 7.432C26.5194 6.848 26.8074 6.332 27.2234 5.884C27.7034 5.372 28.2474 4.948 28.8554 4.612C29.3114 4.364 29.7514 4.216 30.1754 4.168C30.3194 4.152 30.4434 4.156 30.5474 4.18C30.6594 4.204 30.7754 4.228 30.8954 4.252C31.0234 4.276 31.1434 4.312 31.2554 4.36C31.5434 4.48 31.6874 4.644 31.6874 4.852ZM29.4674 8.032C29.5234 7.92 29.5674 7.78 29.5994 7.612C29.6394 7.444 29.6914 7.26 29.7554 7.06C29.1074 7.324 28.6114 7.648 28.2674 8.032C27.8914 8.456 27.9154 8.748 28.3394 8.908C28.7074 9.004 28.9754 8.944 29.1434 8.728C29.2154 8.632 29.2794 8.512 29.3354 8.368C29.3914 8.224 29.4594 8.076 29.5394 7.924C29.5154 7.964 29.4914 8 29.4674 8.032ZM34.629 4.804C35.165 4.588 35.525 4.584 35.709 4.792C35.805 4.904 35.853 5.06 35.853 5.26V5.32C36.149 4.976 36.665 4.688 37.401 4.456C38.177 4.216 38.817 4.148 39.321 4.252C39.977 4.388 40.345 4.816 40.425 5.536C40.489 6.144 40.349 6.916 40.005 7.852C39.893 8.092 39.805 8.288 39.741 8.44C39.685 8.584 39.633 8.716 39.585 8.836C39.481 9.06 39.317 9.328 39.093 9.64C38.965 9.88 38.765 10.064 38.493 10.192C38.229 10.32 37.965 10.392 37.701 10.408C37.445 10.432 37.233 10.392 37.065 10.288C36.897 10.192 36.849 10.036 36.921 9.82C37.105 9.324 37.257 8.872 37.377 8.464C37.497 8.056 37.621 7.708 37.749 7.42C37.869 7.012 37.885 6.756 37.797 6.652C37.725 6.572 37.601 6.584 37.425 6.688C37.273 6.784 37.165 6.896 37.101 7.024C36.957 7.128 36.685 7.544 36.285 8.272C36.173 8.472 36.061 8.672 35.949 8.872C35.845 9.064 35.745 9.244 35.649 9.412C35.561 9.58 35.481 9.72 35.409 9.832C35.345 9.944 35.285 10.016 35.229 10.048C35.181 10.088 35.137 10.112 35.097 10.12C35.065 10.136 35.037 10.152 35.013 10.168C34.989 10.184 34.969 10.236 34.953 10.324C34.921 10.508 34.729 10.644 34.377 10.732C33.809 10.876 33.297 10.852 32.841 10.66C32.689 10.596 32.569 10.508 32.481 10.396C32.297 10.028 32.613 8.776 33.429 6.64C33.717 5.888 33.905 5.44 33.993 5.296C34.193 4.992 34.321 4.82 34.377 4.78C34.441 4.74 34.525 4.748 34.629 4.804ZM42.7451 10.036L42.4451 10.312C42.2851 10.424 42.1291 10.492 41.9771 10.516L41.9891 10.528L41.9291 10.576C41.3611 10.624 40.9411 10.5 40.6691 10.204C40.3891 9.892 40.3291 9.484 40.4891 8.98C40.8411 6.988 41.3331 5.14 41.9651 3.436C42.3891 2.284 42.7971 1.512 43.1891 1.12C43.3971 0.92 43.5891 0.859999 43.7651 0.939999C43.8131 0.747999 43.8971 0.599999 44.0171 0.495999C44.1371 0.383999 44.2691 0.319999 44.4131 0.304C44.5571 0.279999 44.6971 0.303999 44.8331 0.375999C44.9691 0.44 45.0731 0.56 45.1451 0.736C45.2251 0.911999 45.2571 1.084 45.2411 1.252C45.2331 1.412 45.1971 1.572 45.1331 1.732C45.0771 1.884 45.0051 2.036 44.9171 2.188C44.8371 2.34 44.7611 2.492 44.6891 2.644C44.1771 3.876 43.8131 4.788 43.5971 5.38L43.7051 5.308C44.2331 4.956 44.7971 4.8 45.3971 4.84C45.6611 4.864 45.8971 4.936 46.1051 5.056C46.3211 5.168 46.4771 5.34 46.5731 5.572C46.6771 5.804 46.7171 6.104 46.6931 6.472C46.6771 6.832 46.6091 7.208 46.4891 7.6C46.3691 7.984 46.2051 8.36 45.9971 8.728C45.7971 9.096 45.5731 9.416 45.3251 9.688C44.7651 10.304 44.2251 10.536 43.7051 10.384C43.4811 10.416 43.2211 10.312 42.9251 10.072C42.8611 10.016 42.8011 9.972 42.7451 9.94V10.036ZM43.0691 9.172C43.1891 9.036 43.3931 8.78 43.6811 8.404C43.9771 8.028 44.1731 7.736 44.2691 7.528C44.3731 7.312 44.3491 7.112 44.1971 6.928C44.0451 6.736 43.8531 6.88 43.6211 7.36C43.2531 8.128 43.0691 8.732 43.0691 9.172ZM52.3124 4.852L52.3604 4.864C52.3764 4.864 52.3844 4.868 52.3844 4.876C52.5924 4.796 52.7644 4.856 52.9004 5.056C52.9884 5.192 53.0564 5.4 53.1044 5.68C53.1204 6.064 53.0804 6.596 52.9844 7.276C52.8004 8.652 52.7004 9.472 52.6844 9.736C52.7004 10.016 52.5284 10.208 52.1684 10.312C51.8564 10.408 51.5444 10.404 51.2324 10.3C50.9044 10.188 50.7684 10.016 50.8244 9.784C50.7604 9.904 50.6964 9.988 50.6324 10.036C50.5684 10.092 50.4404 10.164 50.2484 10.252C50.0644 10.348 49.8004 10.424 49.4564 10.48C49.1124 10.544 48.7684 10.56 48.4244 10.528C48.0804 10.504 47.7644 10.42 47.4764 10.276C47.1964 10.14 47.0084 9.924 46.9124 9.628C46.7284 9.052 46.7524 8.32 46.9844 7.432C47.1444 6.848 47.4324 6.332 47.8484 5.884C48.3284 5.372 48.8724 4.948 49.4804 4.612C49.9364 4.364 50.3764 4.216 50.8004 4.168C50.9444 4.152 51.0684 4.156 51.1724 4.18C51.2844 4.204 51.4004 4.228 51.5204 4.252C51.6484 4.276 51.7684 4.312 51.8804 4.36C52.1684 4.48 52.3124 4.644 52.3124 4.852ZM50.0924 8.032C50.1484 7.92 50.1924 7.78 50.2244 7.612C50.2644 7.444 50.3164 7.26 50.3804 7.06C49.7324 7.324 49.2364 7.648 48.8924 8.032C48.5164 8.456 48.5404 8.748 48.9644 8.908C49.3324 9.004 49.6004 8.944 49.7684 8.728C49.8404 8.632 49.9044 8.512 49.9604 8.368C50.0164 8.224 50.0844 8.076 50.1644 7.924C50.1404 7.964 50.1164 8 50.0924 8.032ZM55.254 4.804C55.79 4.588 56.15 4.584 56.334 4.792C56.43 4.904 56.478 5.06 56.478 5.26V5.32C56.774 4.976 57.29 4.688 58.026 4.456C58.802 4.216 59.442 4.148 59.946 4.252C60.602 4.388 60.97 4.816 61.05 5.536C61.114 6.144 60.974 6.916 60.63 7.852C60.518 8.092 60.43 8.288 60.366 8.44C60.31 8.584 60.258 8.716 60.21 8.836C60.106 9.06 59.942 9.328 59.718 9.64C59.59 9.88 59.39 10.064 59.118 10.192C58.854 10.32 58.59 10.392 58.326 10.408C58.07 10.432 57.858 10.392 57.69 10.288C57.522 10.192 57.474 10.036 57.546 9.82C57.73 9.324 57.882 8.872 58.002 8.464C58.122 8.056 58.246 7.708 58.374 7.42C58.494 7.012 58.51 6.756 58.422 6.652C58.35 6.572 58.226 6.584 58.05 6.688C57.898 6.784 57.79 6.896 57.726 7.024C57.582 7.128 57.31 7.544 56.91 8.272C56.798 8.472 56.686 8.672 56.574 8.872C56.47 9.064 56.37 9.244 56.274 9.412C56.186 9.58 56.106 9.72 56.034 9.832C55.97 9.944 55.91 10.016 55.854 10.048C55.806 10.088 55.762 10.112 55.722 10.12C55.69 10.136 55.662 10.152 55.638 10.168C55.614 10.184 55.594 10.236 55.578 10.324C55.546 10.508 55.354 10.644 55.002 10.732C54.434 10.876 53.922 10.852 53.466 10.66C53.314 10.596 53.194 10.508 53.106 10.396C52.922 10.028 53.238 8.776 54.054 6.64C54.342 5.888 54.53 5.44 54.618 5.296C54.818 4.992 54.946 4.82 55.002 4.78C55.066 4.74 55.15 4.748 55.254 4.804Z" fill="#70C4F5"/>
</svg>
